<svg width="31" height="31" viewBox="0 0 31 31" fill="none" xmlns="http://www.w3.org/2000/svg">
<rect x="-0.5" y="0.5" width="29" height="29" transform="matrix(-1 0 0 1 29.0938 0.0625)" stroke="#9333EA"/>
<path d="M10.6112 13.3835L15.5487 8.44603C15.7764 8.21027 15.9024 7.89452 15.8996 7.56678C15.8967 7.23903 15.7653 6.92551 15.5335 6.69375C15.3018 6.46199 14.9882 6.33053 14.6605 6.32768C14.3328 6.32484 14.017 6.45083 13.7812 6.67853L6.71 13.7498C6.59352 13.8656 6.50108 14.0033 6.43801 14.155C6.37493 14.3066 6.34246 14.4693 6.34246 14.6335C6.34246 14.7978 6.37493 14.9604 6.43801 15.1121C6.50108 15.2638 6.59352 15.4015 6.71 15.5173L13.7812 22.5885C13.8966 22.7079 14.0345 22.8031 14.187 22.8687C14.3395 22.9342 14.5035 22.9686 14.6695 22.9701C14.8355 22.9715 15.0001 22.9399 15.1537 22.8771C15.3073 22.8142 15.4469 22.7214 15.5642 22.604C15.6816 22.4867 15.7744 22.3471 15.8373 22.1935C15.9001 22.0398 15.9318 21.8752 15.9303 21.7093C15.9289 21.5433 15.8944 21.3793 15.8289 21.2268C15.7634 21.0743 15.6681 20.9363 15.5487 20.821L10.6112 15.8835H22.5938C22.9253 15.8835 23.2432 15.7518 23.4776 15.5174C23.7121 15.283 23.8438 14.965 23.8438 14.6335C23.8438 14.302 23.7121 13.9841 23.4776 13.7496C23.2432 13.5152 22.9253 13.3835 22.5938 13.3835H10.6112Z" fill="#9333EA"/>
</svg>
