<svg width="31" height="30" viewBox="0 0 31 30" fill="none" xmlns="http://www.w3.org/2000/svg">
<rect x="0.5" y="-0.5" width="29" height="29" transform="matrix(1 0 0 -1 0.90625 29)" stroke="#9333EA"/>
<path d="M20.3888 16.679L15.4513 21.6165C15.2236 21.8522 15.0976 22.168 15.1004 22.4957C15.1033 22.8235 15.2347 23.137 15.4665 23.3687C15.6982 23.6005 16.0118 23.732 16.3395 23.7348C16.6672 23.7377 16.983 23.6117 17.2188 23.384L24.29 16.3127C24.4065 16.1969 24.4989 16.0592 24.562 15.9075C24.6251 15.7559 24.6575 15.5932 24.6575 15.429C24.6575 15.2647 24.6251 15.1021 24.562 14.9504C24.4989 14.7987 24.4065 14.661 24.29 14.5452L17.2188 7.47397C17.1034 7.35459 16.9655 7.25936 16.813 7.19385C16.6605 7.12834 16.4965 7.09385 16.3305 7.09241C16.1645 7.09097 15.9999 7.12259 15.8463 7.18545C15.6927 7.2483 15.5531 7.34111 15.4358 7.45848C15.3184 7.57585 15.2256 7.71541 15.1627 7.86903C15.0999 8.02265 15.0682 8.18725 15.0697 8.35323C15.0711 8.5192 15.1056 8.68322 15.1711 8.83573C15.2366 8.98823 15.3319 9.12616 15.4513 9.24147L20.3888 14.179H8.40625C8.07473 14.179 7.75679 14.3107 7.52237 14.5451C7.28795 14.7795 7.15625 15.0975 7.15625 15.429C7.15625 15.7605 7.28795 16.0784 7.52237 16.3129C7.75679 16.5473 8.07473 16.679 8.40625 16.679H20.3888Z" fill="#9333EA"/>
</svg>
