<svg width="50" height="50" viewBox="0 0 50 50" fill="none" xmlns="http://www.w3.org/2000/svg">
<rect x="0.5" y="-0.5" width="49" height="49" transform="matrix(1 0 0 -1 0 49)" stroke="#9333EA"/>
<path d="M32.4709 27.7978L24.2417 36.027C23.8623 36.4199 23.6523 36.9461 23.657 37.4924C23.6618 38.0386 23.8809 38.5612 24.2671 38.9474C24.6534 39.3337 25.1759 39.5528 25.7222 39.5575C26.2684 39.5623 26.7947 39.3523 27.1876 38.9728L38.973 27.1874C39.1671 26.9944 39.3212 26.7649 39.4263 26.5121C39.5314 26.2593 39.5856 25.9882 39.5856 25.7145C39.5856 25.4407 39.5314 25.1696 39.4263 24.9169C39.3212 24.6641 39.1671 24.4346 38.973 24.2415L27.1876 12.4561C26.9954 12.2572 26.7655 12.0984 26.5113 11.9893C26.2572 11.8801 25.9838 11.8226 25.7072 11.8202C25.4305 11.8178 25.1562 11.8705 24.9002 11.9753C24.6441 12.08 24.4115 12.2347 24.2159 12.4303C24.0203 12.6259 23.8656 12.8585 23.7609 13.1146C23.6561 13.3706 23.6034 13.6449 23.6058 13.9216C23.6082 14.1982 23.6657 14.4715 23.7749 14.7257C23.8841 14.9799 24.0428 15.2098 24.2417 15.402L32.4709 23.6311H12.5001C11.9475 23.6311 11.4176 23.8506 11.0269 24.2413C10.6362 24.632 10.4167 25.1619 10.4167 25.7145C10.4167 26.267 10.6362 26.7969 11.0269 27.1876C11.4176 27.5783 11.9475 27.7978 12.5001 27.7978H32.4709Z" fill="#9333EA"/>
</svg>
