<svg width="50" height="50" viewBox="0 0 50 50" fill="none" xmlns="http://www.w3.org/2000/svg">
<rect x="-0.5" y="0.5" width="49" height="49" transform="matrix(-1 0 0 1 49 0)" stroke="#9333EA"/>
<path d="M17.5292 22.2022L25.7584 13.973C26.1379 13.5801 26.3479 13.0539 26.3431 12.5076C26.3384 11.9614 26.1193 11.4388 25.733 11.0526C25.3467 10.6663 24.8242 10.4472 24.278 10.4425C23.7317 10.4377 23.2055 10.6477 22.8125 11.0272L11.0271 22.8126C10.833 23.0056 10.6789 23.2351 10.5738 23.4879C10.4687 23.7407 10.4146 24.0118 10.4146 24.2855C10.4146 24.5593 10.4687 24.8304 10.5738 25.0831C10.6789 25.3359 10.833 25.5654 11.0271 25.7585L22.8125 37.5439C23.0047 37.7428 23.2346 37.9016 23.4888 38.0107C23.743 38.1199 24.0163 38.1774 24.293 38.1798C24.5696 38.1822 24.8439 38.1295 25.0999 38.0247C25.356 37.92 25.5886 37.7653 25.7842 37.5697C25.9798 37.3741 26.1345 37.1415 26.2393 36.8854C26.344 36.6294 26.3967 36.3551 26.3943 36.0784C26.3919 35.8018 26.3344 35.5285 26.2253 35.2743C26.1161 35.0201 25.9574 34.7902 25.7584 34.598L17.5292 26.3689H37.5C38.0526 26.3689 38.5825 26.1494 38.9732 25.7587C39.3639 25.368 39.5834 24.8381 39.5834 24.2855C39.5834 23.733 39.3639 23.2031 38.9732 22.8124C38.5825 22.4217 38.0526 22.2022 37.5 22.2022H17.5292Z" fill="#9333EA"/>
</svg>
