<svg width="177" height="32" viewBox="0 0 177 32" fill="none" xmlns="http://www.w3.org/2000/svg">
<path d="M23.483 26.4845L2.0704 11.714C-0.0995048 10.2173 0.638121 7.10088 3.34394 6.36802L26.1017 0.191307C26.5838 0.0173566 27.1004 -0.0391112 27.6087 0.0265948C28.1169 0.0923008 28.6022 0.278283 29.0243 0.569108C29.4462 0.859932 29.7928 1.24721 30.0351 1.6988C30.2774 2.15038 30.4086 2.65326 30.4177 3.16568L29.0689 24.1116C28.909 26.5978 25.6529 27.9812 23.483 26.4845Z" fill="white"/>
<path d="M16.6916 30.1304L4.07676 5.46055C3.78839 4.89618 3.6615 4.26312 3.71007 3.63121C3.75864 2.9993 3.98078 2.39308 4.352 1.8794C4.72322 1.36572 5.22909 0.96454 5.81383 0.720098C6.39857 0.475655 7.03946 0.397452 7.66582 0.494119L31.0443 4.10227C31.5825 4.18535 32.0933 4.395 32.5348 4.71398C32.9762 5.03297 33.3356 5.45218 33.5835 5.93714C33.8313 6.4221 33.9605 6.95895 33.9604 7.50358C33.9603 8.04819 33.8309 8.58502 33.583 9.0699L22.8134 30.1316C22.5242 30.6943 22.0855 31.1665 21.5454 31.4961C21.0053 31.8257 20.3849 32 19.7522 31.9999C19.1194 31.9997 18.499 31.8252 17.9591 31.4955C17.4191 31.1656 16.9806 30.6933 16.6916 30.1304Z" fill="white"/>
<path d="M24.3811 8.72693L19.8923 8L14.3811 9.57011L16.5809 14.0856L21.7322 17.8153C21.8458 17.8966 21.9708 17.959 22.1027 18L24.0593 13.9852L24.3811 8.72693Z" fill="#0F172A"/>
<path d="M52.3667 19.5352C52.3667 19.2305 52.3198 18.957 52.2261 18.7148C52.1401 18.4648 51.9761 18.2383 51.7339 18.0352C51.4917 17.8242 51.1519 17.6172 50.7144 17.4141C50.2769 17.2109 49.7104 17 49.0151 16.7812C48.2417 16.5312 47.5073 16.25 46.812 15.9375C46.1245 15.625 45.5151 15.2617 44.9839 14.8477C44.4604 14.4258 44.0464 13.9375 43.7417 13.3828C43.4448 12.8281 43.2964 12.1836 43.2964 11.4492C43.2964 10.7383 43.4526 10.0938 43.7651 9.51562C44.0776 8.92969 44.5151 8.42969 45.0776 8.01562C45.6401 7.59375 46.3042 7.26953 47.0698 7.04297C47.8433 6.81641 48.6909 6.70312 49.6128 6.70312C50.8706 6.70312 51.9683 6.92969 52.9058 7.38281C53.8433 7.83594 54.5698 8.45703 55.0854 9.24609C55.6089 10.0352 55.8706 10.9375 55.8706 11.9531H52.3784C52.3784 11.4531 52.2729 11.0156 52.062 10.6406C51.8589 10.2578 51.5464 9.95703 51.1245 9.73828C50.7104 9.51953 50.187 9.41016 49.5542 9.41016C48.9448 9.41016 48.437 9.50391 48.0308 9.69141C47.6245 9.87109 47.3198 10.1172 47.1167 10.4297C46.9136 10.7344 46.812 11.0781 46.812 11.4609C46.812 11.75 46.8823 12.0117 47.0229 12.2461C47.1714 12.4805 47.3901 12.6992 47.6792 12.9023C47.9683 13.1055 48.3237 13.2969 48.7456 13.4766C49.1675 13.6562 49.6558 13.832 50.2104 14.0039C51.1401 14.2852 51.9565 14.6016 52.6597 14.9531C53.3706 15.3047 53.9644 15.6992 54.4409 16.1367C54.9175 16.5742 55.2769 17.0703 55.519 17.625C55.7612 18.1797 55.8823 18.8086 55.8823 19.5117C55.8823 20.2539 55.7378 20.918 55.4487 21.5039C55.1597 22.0898 54.7417 22.5859 54.1948 22.9922C53.6479 23.3984 52.9956 23.707 52.2378 23.918C51.48 24.1289 50.6323 24.2344 49.6948 24.2344C48.8511 24.2344 48.019 24.125 47.1987 23.9062C46.3784 23.6797 45.6323 23.3398 44.9604 22.8867C44.2964 22.4336 43.7651 21.8555 43.3667 21.1523C42.9683 20.4492 42.769 19.6172 42.769 18.6562H46.2964C46.2964 19.1875 46.3784 19.6367 46.5425 20.0039C46.7065 20.3711 46.937 20.668 47.2339 20.8945C47.5386 21.1211 47.8979 21.2852 48.312 21.3867C48.7339 21.4883 49.1948 21.5391 49.6948 21.5391C50.3042 21.5391 50.8042 21.4531 51.1948 21.2812C51.5933 21.1094 51.8862 20.8711 52.0737 20.5664C52.269 20.2617 52.3667 19.918 52.3667 19.5352ZM61.437 13.9453V24H58.0503V11.3203H61.2261L61.437 13.9453ZM60.9683 17.2148H60.0308C60.0308 16.332 60.1362 15.5195 60.3472 14.7773C60.5659 14.0273 60.8823 13.3789 61.2964 12.832C61.7183 12.2773 62.2378 11.8477 62.855 11.543C63.4722 11.2383 64.187 11.0859 64.9995 11.0859C65.562 11.0859 66.0776 11.1719 66.5464 11.3438C67.0151 11.5078 67.4175 11.7695 67.7534 12.1289C68.0972 12.4805 68.3628 12.9414 68.5503 13.5117C68.7378 14.0742 68.8315 14.75 68.8315 15.5391V24H65.4565V15.9141C65.4565 15.3359 65.3784 14.8906 65.2222 14.5781C65.0659 14.2656 64.8433 14.0469 64.5542 13.9219C64.2729 13.7969 63.9331 13.7344 63.5347 13.7344C63.0972 13.7344 62.7144 13.8242 62.3862 14.0039C62.0659 14.1836 61.8003 14.4336 61.5894 14.7539C61.3784 15.0664 61.2222 15.4336 61.1206 15.8555C61.019 16.2773 60.9683 16.7305 60.9683 17.2148ZM68.5151 16.8281L67.3081 16.9805C67.3081 16.1523 67.4097 15.3828 67.6128 14.6719C67.8237 13.9609 68.1323 13.3359 68.5386 12.7969C68.9526 12.2578 69.4644 11.8398 70.0737 11.543C70.6831 11.2383 71.3862 11.0859 72.1831 11.0859C72.7925 11.0859 73.3472 11.1758 73.8472 11.3555C74.3472 11.5273 74.7729 11.8047 75.1245 12.1875C75.4839 12.5625 75.7573 13.0547 75.9448 13.6641C76.1401 14.2734 76.2378 15.0195 76.2378 15.9023V24H72.8511V15.9023C72.8511 15.3164 72.7729 14.8711 72.6167 14.5664C72.4683 14.2539 72.2495 14.0391 71.9604 13.9219C71.6792 13.7969 71.3433 13.7344 70.9526 13.7344C70.5464 13.7344 70.1909 13.8164 69.8862 13.9805C69.5815 14.1367 69.3276 14.3555 69.1245 14.6367C68.9214 14.918 68.769 15.2461 68.6675 15.6211C68.5659 15.9883 68.5151 16.3906 68.5151 16.8281ZM85.6948 21.1406V15.4922C85.6948 15.0859 85.6284 14.7383 85.4956 14.4492C85.3628 14.1523 85.1558 13.9219 84.8745 13.7578C84.6011 13.5938 84.2456 13.5117 83.8081 13.5117C83.4331 13.5117 83.1089 13.5781 82.8354 13.7109C82.562 13.8359 82.3511 14.0195 82.2026 14.2617C82.0542 14.4961 81.98 14.7734 81.98 15.0938H78.605C78.605 14.5547 78.73 14.043 78.98 13.5586C79.23 13.0742 79.5933 12.6484 80.0698 12.2812C80.5464 11.9062 81.1128 11.6133 81.769 11.4023C82.4331 11.1914 83.1753 11.0859 83.9956 11.0859C84.98 11.0859 85.855 11.25 86.6206 11.5781C87.3862 11.9062 87.9878 12.3984 88.4253 13.0547C88.8706 13.7109 89.0933 14.5312 89.0933 15.5156V20.9414C89.0933 21.6367 89.1362 22.207 89.2222 22.6523C89.3081 23.0898 89.4331 23.4727 89.5972 23.8008V24H86.187C86.0229 23.6562 85.8979 23.2266 85.812 22.7109C85.7339 22.1875 85.6948 21.6641 85.6948 21.1406ZM86.1401 16.2773L86.1636 18.1875H84.2769C83.8315 18.1875 83.4448 18.2383 83.1167 18.3398C82.7886 18.4414 82.519 18.5859 82.3081 18.7734C82.0972 18.9531 81.9409 19.1641 81.8394 19.4062C81.7456 19.6484 81.6987 19.9141 81.6987 20.2031C81.6987 20.4922 81.7651 20.7539 81.8979 20.9883C82.0308 21.2148 82.2222 21.3945 82.4722 21.5273C82.7222 21.6523 83.0151 21.7148 83.3511 21.7148C83.8589 21.7148 84.3003 21.6133 84.6753 21.4102C85.0503 21.207 85.3394 20.957 85.5425 20.6602C85.7534 20.3633 85.8628 20.082 85.8706 19.8164L86.7612 21.2461C86.6362 21.5664 86.4644 21.8984 86.2456 22.2422C86.0347 22.5859 85.7651 22.9102 85.437 23.2148C85.1089 23.5117 84.7144 23.7578 84.2534 23.9531C83.7925 24.1406 83.2456 24.2344 82.6128 24.2344C81.8081 24.2344 81.0776 24.0742 80.4214 23.7539C79.7729 23.4258 79.2573 22.9766 78.8745 22.4062C78.4995 21.8281 78.312 21.1719 78.312 20.4375C78.312 19.7734 78.437 19.1836 78.687 18.668C78.937 18.1523 79.3042 17.7188 79.7886 17.3672C80.2808 17.0078 80.894 16.7383 81.6284 16.5586C82.3628 16.3711 83.2144 16.2773 84.1831 16.2773H86.1401ZM95.0698 14.0859V24H91.6948V11.3203H94.8706L95.0698 14.0859ZM98.8901 11.2383L98.8315 14.3672C98.6675 14.3438 98.4683 14.3242 98.2339 14.3086C98.0073 14.2852 97.8003 14.2734 97.6128 14.2734C97.1362 14.2734 96.7222 14.3359 96.3706 14.4609C96.0269 14.5781 95.7378 14.7539 95.5034 14.9883C95.2769 15.2227 95.105 15.5078 94.9878 15.8438C94.8784 16.1797 94.8159 16.5625 94.8003 16.9922L94.1206 16.7812C94.1206 15.9609 94.2026 15.207 94.3667 14.5195C94.5308 13.8242 94.769 13.2188 95.0815 12.7031C95.4019 12.1875 95.7925 11.7891 96.2534 11.5078C96.7144 11.2266 97.2417 11.0859 97.8354 11.0859C98.0229 11.0859 98.2144 11.1016 98.4097 11.1328C98.605 11.1562 98.7651 11.1914 98.8901 11.2383ZM107.281 11.3203V13.7109H99.8979V11.3203H107.281ZM101.726 8.19141H105.101V20.1797C105.101 20.5469 105.148 20.8281 105.242 21.0234C105.343 21.2188 105.492 21.3555 105.687 21.4336C105.882 21.5039 106.128 21.5391 106.425 21.5391C106.636 21.5391 106.824 21.5312 106.988 21.5156C107.16 21.4922 107.304 21.4688 107.421 21.4453L107.433 23.9297C107.144 24.0234 106.832 24.0977 106.496 24.1523C106.16 24.207 105.789 24.2344 105.382 24.2344C104.64 24.2344 103.992 24.1133 103.437 23.8711C102.89 23.6211 102.468 23.2227 102.171 22.6758C101.875 22.1289 101.726 21.4102 101.726 20.5195V8.19141ZM112.929 6.9375V24H109.414V6.9375H112.929ZM119.726 14.2266V16.9688H111.968V14.2266H119.726ZM120.546 6.9375V9.69141H111.968V6.9375H120.546ZM125.937 11.3203V24H122.55V11.3203H125.937ZM122.339 8.01562C122.339 7.52344 122.511 7.11719 122.855 6.79688C123.199 6.47656 123.66 6.31641 124.238 6.31641C124.808 6.31641 125.265 6.47656 125.609 6.79688C125.96 7.11719 126.136 7.52344 126.136 8.01562C126.136 8.50781 125.96 8.91406 125.609 9.23438C125.265 9.55469 124.808 9.71484 124.238 9.71484C123.66 9.71484 123.199 9.55469 122.855 9.23438C122.511 8.91406 122.339 8.50781 122.339 8.01562ZM132.031 14.0273V24H128.656V11.3203H131.82L132.031 14.0273ZM131.539 17.2148H130.625C130.625 16.2773 130.746 15.4336 130.988 14.6836C131.23 13.9258 131.57 13.2812 132.007 12.75C132.445 12.2109 132.964 11.8008 133.566 11.5195C134.175 11.2305 134.855 11.0859 135.605 11.0859C136.199 11.0859 136.742 11.1719 137.234 11.3438C137.726 11.5156 138.148 11.7891 138.5 12.1641C138.859 12.5391 139.132 13.0352 139.32 13.6523C139.515 14.2695 139.613 15.0234 139.613 15.9141V24H136.214V15.9023C136.214 15.3398 136.136 14.9023 135.98 14.5898C135.824 14.2773 135.593 14.0586 135.289 13.9336C134.992 13.8008 134.625 13.7344 134.187 13.7344C133.734 13.7344 133.339 13.8242 133.003 14.0039C132.675 14.1836 132.402 14.4336 132.183 14.7539C131.972 15.0664 131.812 15.4336 131.703 15.8555C131.593 16.2773 131.539 16.7305 131.539 17.2148ZM149.667 21.2344V6H153.066V24H150.007L149.667 21.2344ZM141.652 17.8125V17.5664C141.652 16.5977 141.761 15.7188 141.98 14.9297C142.199 14.1328 142.519 13.4492 142.941 12.8789C143.363 12.3086 143.882 11.8672 144.5 11.5547C145.117 11.2422 145.82 11.0859 146.609 11.0859C147.351 11.0859 148 11.2422 148.554 11.5547C149.117 11.8672 149.593 12.3125 149.984 12.8906C150.382 13.4609 150.703 14.1367 150.945 14.918C151.187 15.6914 151.363 16.5391 151.472 17.4609V18C151.363 18.8828 151.187 19.7031 150.945 20.4609C150.703 21.2188 150.382 21.8828 149.984 22.4531C149.593 23.0156 149.117 23.4531 148.554 23.7656C147.992 24.0781 147.335 24.2344 146.585 24.2344C145.796 24.2344 145.093 24.0742 144.476 23.7539C143.867 23.4336 143.351 22.9844 142.929 22.4062C142.515 21.8281 142.199 21.1484 141.98 20.3672C141.761 19.5859 141.652 18.7344 141.652 17.8125ZM145.027 17.5664V17.8125C145.027 18.3359 145.066 18.8242 145.144 19.2773C145.23 19.7305 145.367 20.1328 145.554 20.4844C145.75 20.8281 146 21.0977 146.304 21.293C146.617 21.4805 146.996 21.5742 147.441 21.5742C148.019 21.5742 148.496 21.4453 148.871 21.1875C149.246 20.9219 149.531 20.5586 149.726 20.0977C149.929 19.6367 150.046 19.1055 150.078 18.5039V16.9688C150.054 16.4766 149.984 16.0352 149.867 15.6445C149.757 15.2461 149.593 14.9062 149.375 14.625C149.164 14.3438 148.898 14.125 148.578 13.9688C148.265 13.8125 147.894 13.7344 147.464 13.7344C147.027 13.7344 146.652 13.8359 146.339 14.0391C146.027 14.2344 145.773 14.5039 145.578 14.8477C145.39 15.1914 145.25 15.5977 145.156 16.0664C145.07 16.5273 145.027 17.0273 145.027 17.5664ZM161.539 24.2344C160.554 24.2344 159.671 24.0781 158.89 23.7656C158.109 23.4453 157.445 23.0039 156.898 22.4414C156.359 21.8789 155.945 21.2266 155.656 20.4844C155.367 19.7344 155.222 18.9375 155.222 18.0938V17.625C155.222 16.6641 155.359 15.7852 155.632 14.9883C155.906 14.1914 156.296 13.5 156.804 12.9141C157.32 12.3281 157.945 11.8789 158.679 11.5664C159.414 11.2461 160.242 11.0859 161.164 11.0859C162.062 11.0859 162.859 11.2344 163.554 11.5312C164.25 11.8281 164.832 12.25 165.3 12.7969C165.777 13.3438 166.136 14 166.378 14.7656C166.621 15.5234 166.742 16.3672 166.742 17.2969V18.7031H156.664V16.4531H163.425V16.1953C163.425 15.7266 163.339 15.3086 163.167 14.9414C163.003 14.5664 162.753 14.2695 162.417 14.0508C162.082 13.832 161.652 13.7227 161.128 13.7227C160.683 13.7227 160.3 13.8203 159.98 14.0156C159.66 14.2109 159.398 14.4844 159.195 14.8359C159 15.1875 158.851 15.6016 158.75 16.0781C158.656 16.5469 158.609 17.0625 158.609 17.625V18.0938C158.609 18.6016 158.679 19.0703 158.82 19.5C158.968 19.9297 159.175 20.3008 159.441 20.6133C159.714 20.9258 160.042 21.168 160.425 21.3398C160.816 21.5117 161.257 21.5977 161.75 21.5977C162.359 21.5977 162.925 21.4805 163.449 21.2461C163.98 21.0039 164.437 20.6406 164.82 20.1562L166.46 21.9375C166.195 22.3203 165.832 22.6875 165.371 23.0391C164.917 23.3906 164.371 23.6797 163.73 23.9062C163.089 24.125 162.359 24.2344 161.539 24.2344ZM172.039 14.0859V24H168.664V11.3203H171.839L172.039 14.0859ZM175.859 11.2383L175.8 14.3672C175.636 14.3438 175.437 14.3242 175.203 14.3086C174.976 14.2852 174.769 14.2734 174.582 14.2734C174.105 14.2734 173.691 14.3359 173.339 14.4609C172.996 14.5781 172.707 14.7539 172.472 14.9883C172.246 15.2227 172.074 15.5078 171.957 15.8438C171.847 16.1797 171.785 16.5625 171.769 16.9922L171.089 16.7812C171.089 15.9609 171.171 15.207 171.335 14.5195C171.5 13.8242 171.738 13.2188 172.05 12.7031C172.371 12.1875 172.761 11.7891 173.222 11.5078C173.683 11.2266 174.21 11.0859 174.804 11.0859C174.992 11.0859 175.183 11.1016 175.378 11.1328C175.574 11.1562 175.734 11.1914 175.859 11.2383Z" fill="white"/>
</svg>
