<svg width="76" height="25" viewBox="0 0 76 25" fill="none" xmlns="http://www.w3.org/2000/svg">
<path d="M6.57812 20.125L10.0938 7.59375H12.9531L12.0312 12.5156L8.51562 24.5H6.125L6.57812 20.125ZM4.79688 7.59375L7.3125 20.1094L7.54688 24.5H4.73438L0.453125 7.59375H4.79688ZM16.1719 19.9062L18.625 7.59375H22.9844L18.7031 24.5H15.9062L16.1719 19.9062ZM13.3438 7.59375L16.8438 20.0312L17.3281 24.5H14.9219L11.4062 12.5312L10.5156 7.59375H13.3438ZM33.0312 24.8125C31.7188 24.8125 30.5417 24.6042 29.5 24.1875C28.4583 23.7604 27.5729 23.1719 26.8438 22.4219C26.125 21.6719 25.5729 20.8021 25.1875 19.8125C24.8021 18.8125 24.6094 17.75 24.6094 16.625V16C24.6094 14.7188 24.7917 13.5469 25.1562 12.4844C25.5208 11.4219 26.0417 10.5 26.7188 9.71875C27.4062 8.9375 28.2396 8.33854 29.2188 7.92188C30.1979 7.49479 31.3021 7.28125 32.5312 7.28125C33.7292 7.28125 34.7917 7.47917 35.7188 7.875C36.6458 8.27083 37.4219 8.83333 38.0469 9.5625C38.6823 10.2917 39.1615 11.1667 39.4844 12.1875C39.8073 13.1979 39.9688 14.3229 39.9688 15.5625V17.4375H26.5312V14.4375H35.5469V14.0938C35.5469 13.4688 35.4323 12.9115 35.2031 12.4219C34.9844 11.9219 34.651 11.526 34.2031 11.2344C33.7552 10.9427 33.1823 10.7969 32.4844 10.7969C31.8906 10.7969 31.3802 10.9271 30.9531 11.1875C30.526 11.4479 30.1771 11.8125 29.9062 12.2812C29.6458 12.75 29.4479 13.3021 29.3125 13.9375C29.1875 14.5625 29.125 15.25 29.125 16V16.625C29.125 17.3021 29.2188 17.9271 29.4062 18.5C29.6042 19.0729 29.8802 19.5677 30.2344 19.9844C30.599 20.401 31.0365 20.724 31.5469 20.9531C32.0677 21.1823 32.6562 21.2969 33.3125 21.2969C34.125 21.2969 34.8802 21.1406 35.5781 20.8281C36.2865 20.5052 36.8958 20.0208 37.4062 19.375L39.5938 21.75C39.2396 22.2604 38.7552 22.75 38.1406 23.2188C37.5365 23.6875 36.8073 24.0729 35.9531 24.375C35.099 24.6667 34.125 24.8125 33.0312 24.8125ZM50.3125 24.8125C49 24.8125 47.8229 24.6042 46.7812 24.1875C45.7396 23.7604 44.8542 23.1719 44.125 22.4219C43.4062 21.6719 42.8542 20.8021 42.4688 19.8125C42.0833 18.8125 41.8906 17.75 41.8906 16.625V16C41.8906 14.7188 42.0729 13.5469 42.4375 12.4844C42.8021 11.4219 43.3229 10.5 44 9.71875C44.6875 8.9375 45.5208 8.33854 46.5 7.92188C47.4792 7.49479 48.5833 7.28125 49.8125 7.28125C51.0104 7.28125 52.0729 7.47917 53 7.875C53.9271 8.27083 54.7031 8.83333 55.3281 9.5625C55.9635 10.2917 56.4427 11.1667 56.7656 12.1875C57.0885 13.1979 57.25 14.3229 57.25 15.5625V17.4375H43.8125V14.4375H52.8281V14.0938C52.8281 13.4688 52.7135 12.9115 52.4844 12.4219C52.2656 11.9219 51.9323 11.526 51.4844 11.2344C51.0365 10.9427 50.4635 10.7969 49.7656 10.7969C49.1719 10.7969 48.6615 10.9271 48.2344 11.1875C47.8073 11.4479 47.4583 11.8125 47.1875 12.2812C46.9271 12.75 46.7292 13.3021 46.5938 13.9375C46.4688 14.5625 46.4062 15.25 46.4062 16V16.625C46.4062 17.3021 46.5 17.9271 46.6875 18.5C46.8854 19.0729 47.1615 19.5677 47.5156 19.9844C47.8802 20.401 48.3177 20.724 48.8281 20.9531C49.349 21.1823 49.9375 21.2969 50.5938 21.2969C51.4062 21.2969 52.1615 21.1406 52.8594 20.8281C53.5677 20.5052 54.1771 20.0208 54.6875 19.375L56.875 21.75C56.5208 22.2604 56.0365 22.75 55.4219 23.2188C54.8177 23.6875 54.0885 24.0729 53.2344 24.375C52.3802 24.6667 51.4062 24.8125 50.3125 24.8125ZM59.8125 0.5H64.3125V20.625L63.8594 24.5H59.8125V0.5ZM75.0156 15.875V16.2031C75.0156 17.4635 74.8802 18.6198 74.6094 19.6719C74.349 20.724 73.9427 21.6354 73.3906 22.4062C72.8385 23.1667 72.151 23.7604 71.3281 24.1875C70.5156 24.6042 69.5573 24.8125 68.4531 24.8125C67.4219 24.8125 66.526 24.6042 65.7656 24.1875C65.0156 23.7708 64.3854 23.1823 63.875 22.4219C63.3646 21.6615 62.9531 20.7708 62.6406 19.75C62.3281 18.7292 62.0938 17.6146 61.9375 16.4062V15.6875C62.0938 14.4792 62.3281 13.3646 62.6406 12.3438C62.9531 11.3229 63.3646 10.4323 63.875 9.67188C64.3854 8.91146 65.0156 8.32292 65.7656 7.90625C66.5156 7.48958 67.401 7.28125 68.4219 7.28125C69.5365 7.28125 70.5052 7.49479 71.3281 7.92188C72.1615 8.33854 72.849 8.93229 73.3906 9.70312C73.9427 10.4635 74.349 11.3698 74.6094 12.4219C74.8802 13.4635 75.0156 14.6146 75.0156 15.875ZM70.5156 16.2031V15.875C70.5156 15.1875 70.4635 14.5417 70.3594 13.9375C70.2656 13.3229 70.099 12.7865 69.8594 12.3281C69.6198 11.8594 69.2917 11.4896 68.875 11.2188C68.4688 10.9479 67.9427 10.8125 67.2969 10.8125C66.6823 10.8125 66.1615 10.9167 65.7344 11.125C65.3073 11.3333 64.9531 11.625 64.6719 12C64.401 12.375 64.1979 12.8229 64.0625 13.3438C63.9271 13.8542 63.8438 14.4167 63.8125 15.0312V17.0781C63.8438 17.901 63.9792 18.6302 64.2188 19.2656C64.4688 19.8906 64.8438 20.3854 65.3438 20.75C65.8542 21.1042 66.5156 21.2812 67.3281 21.2812C67.9635 21.2812 68.4896 21.1562 68.9062 20.9062C69.3229 20.6562 69.6458 20.3021 69.875 19.8438C70.1146 19.3854 70.2812 18.849 70.375 18.2344C70.4688 17.6094 70.5156 16.9323 70.5156 16.2031Z" fill="white"/>
</svg>
